HIERARCHY
ROOT Hips
{
	OFFSET -32.860001 56.121803 44.745396
	CHANNELS 6 Xposition Yposition Zposition Zrotation Xrotation Yrotation
	JOINT Chest
	{
		OFFSET -0.637402 0.831600 5.390099
		CHANNELS 6 Xposition Yposition Zposition Zrotation Xrotation Yrotation
		JOINT Chest2
		{
			OFFSET 0.000000 0.000000 4.429901
			CHANNELS 6 Xposition Yposition Zposition Zrotation Xrotation Yrotation
			JOINT Neck
			{
				OFFSET 0.000000 0.000000 10.301395
				CHANNELS 6 Xposition Yposition Zposition Zrotation Xrotation Yrotation
				JOINT Head
				{
					OFFSET 0.000000 0.000000 2.173897
					CHANNELS 6 Xposition Yposition Zposition Zrotation Xrotation Yrotation
					End Site
					{
						OFFSET 0.000000 0.000000 8.298004
					}
				}
			}
			JOINT LeftCollar
			{
				OFFSET 2.142401 -0.572701 5.717800
				CHANNELS 6 Xposition Yposition Zposition Zrotation Xrotation Yrotation
				JOINT LeftShoulder
				{
					OFFSET 5.674000 0.000000 0.000000
					CHANNELS 6 Xposition Yposition Zposition Zrotation Xrotation Yrotation
					JOINT LeftElbow
					{
						OFFSET 0.000000 0.000000 -12.238701
						CHANNELS 6 Xposition Yposition Zposition Zrotation Xrotation Yrotation
						JOINT LeftWrist
						{
							OFFSET 0.000000 0.000000 -10.253700
							CHANNELS 6 Xposition Yposition Zposition Zrotation Xrotation Yrotation
							End Site
							{
								OFFSET 0.000000 0.000000 -2.173901
							}
						}
					}
				}
			}
			JOINT RightCollar
			{
				OFFSET -2.882599 -1.580101 6.695801
				CHANNELS 6 Xposition Yposition Zposition Zrotation Xrotation Yrotation
				JOINT RightShoulder
				{
					OFFSET -4.235600 0.000000 0.000000
					CHANNELS 6 Xposition Yposition Zposition Zrotation Xrotation Yrotation
					JOINT RightElbow
					{
						OFFSET 0.000000 0.000000 -10.709900
						CHANNELS 6 Xposition Yposition Zposition Zrotation Xrotation Yrotation
						JOINT RightWrist
						{
							OFFSET 0.000000 0.000000 -11.716801
							CHANNELS 6 Xposition Yposition Zposition Zrotation Xrotation Yrotation
							End Site
							{
								OFFSET 0.000000 0.000000 -2.173901
							}
						}
					}
				}
			}
		}
	}
	JOINT LeftHip
	{
		OFFSET 2.279499 0.210400 -2.475502
		CHANNELS 6 Xposition Yposition Zposition Zrotation Xrotation Yrotation
		JOINT LeftKnee
		{
			OFFSET 0.000000 -0.000004 -20.742800
			CHANNELS 6 Xposition Yposition Zposition Zrotation Xrotation Yrotation
			JOINT LeftAnkle
			{
				OFFSET 0.000000 0.000000 -16.666000
				CHANNELS 6 Xposition Yposition Zposition Zrotation Xrotation Yrotation
				End Site
				{
					OFFSET 0.000000 -8.310898 0.000000
				}
			}
		}
	}
	JOINT RightHip
	{
		OFFSET -1.961899 0.232300 -2.727402
		CHANNELS 6 Xposition Yposition Zposition Zrotation Xrotation Yrotation
		JOINT RightKnee
		{
			OFFSET 0.000000 -0.000004 -20.526800
			CHANNELS 6 Xposition Yposition Zposition Zrotation Xrotation Yrotation
			JOINT RightAnkle
			{
				OFFSET 0.000000 0.000000 -16.867300
				CHANNELS 6 Xposition Yposition Zposition Zrotation Xrotation Yrotation
				End Site
				{
					OFFSET 0.000000 -7.186401 0.000000
				}
			}
		}
	}
}
MOTION
Frames: 6
Frame Time: 0.041667
44.896111 20.825108 29.455088 1158.615589 -23.796989 -9.298202 -0.637399 0.831604 5.390094 40.877497 9.053118 -5.265657 0.000004 0.000002 4.429894 -10.231475 -1.244953 0.084154 -0.000001 -0.000002 10.301398 333.527235 12.218477 9.810541 -0.000000 -0.000010 2.173901 -361.146471 1.186399 -3.024983 2.142398 -0.572700 5.717794 -4.179172 8.910700 2.098641 5.673995 -0.000010 -0.000002 164.540555 -212.965735 166.154406 0.000001 -0.000002 -12.238695 -536.192690 -148.225924 -164.063439 0.000001 -0.000012 -10.253699 822.002065 77.456961 1.539054 -2.882597 -1.580099 6.695796 17.507237 8.659910 -31.342772 -4.235600 -0.000011 0.000000 -138.162378 206.997475 -84.963899 -0.000001 0.000000 -10.709895 141.443833 -159.272471 158.484445 -0.000007 -0.000006 -11.716801 90.888521 18.817735 57.915640 2.279501 0.210413 -2.475508 410.292469 -35.491828 53.309743 -0.000002 -0.000006 -20.742804 199.192331 -18.085953 73.491244 -0.000007 -0.000000 -16.666000 -299.881532 13.512892 36.108369 -1.961900 0.232305 -2.727402 -988.235154 30.604012 -42.528292 -0.000004 -0.000004 -20.526798 896.692806 150.309514 -253.167464 -0.000002 0.000002 -16.867300 -39.083924 6.318416 -14.141203
44.896416 20.826599 29.446392 1158.675695 -23.859155 -9.302249 -0.637394 0.831599 5.390095 40.585882 9.076882 -5.211387 -0.000001 0.000000 4.429904 -10.158908 -1.206073 0.088210 -0.000007 0.000000 10.301405 333.521853 12.283898 9.847090 -0.000001 -0.000006 2.173890 -361.037570 1.186286 -2.846226 2.142395 -0.572704 5.717801 -4.202311 8.855216 2.055214 5.674005 -0.000008 0.000007 164.312017 -213.103541 166.298236 -0.000003 0.000009 -12.238693 -535.626385 -148.437100 -163.921166 0.000003 -0.000005 -10.253700 822.976760 77.481331 -0.074766 -2.882605 -1.580096 6.695800 17.784120 8.800023 -31.182296 -4.235600 -0.000002 -0.000007 -138.193783 207.176590 -84.901430 0.000000 0.000002 -10.709896 141.161705 -159.445521 158.466017 -0.000007 0.000002 -11.716805 91.005577 18.853957 57.868443 2.279499 0.210406 -2.475500 410.381043 -35.372908 53.395588 -0.000010 -0.000005 -20.742800 199.024131 -18.333071 73.502876 -0.000005 0.000006 -16.665998 -299.736404 13.500527 36.238375 -1.961900 0.232299 -2.727404 -988.349574 30.786562 -42.567382 0.000002 -0.000004 -20.526802 896.601992 150.109758 -253.090365 -0.000002 -0.000007 -16.867300 -38.797168 6.445007 -13.758558
44.912117 20.841194 29.435192 1158.350141 -23.892142 -9.507295 -0.637396 0.831595 5.390098 40.618520 9.169422 -5.123425 0.000005 -0.000003 4.429902 -10.073586 -1.174716 0.088041 -0.000001 0.000004 10.301392 333.542453 12.354592 9.859207 -0.000002 -0.000002 2.173900 -361.083524 1.081898 -2.768589 2.142398 -0.572695 5.717802 -4.201616 8.754901 2.009093 5.673999 -0.000007 0.000009 164.333491 -213.122898 166.308686 -0.000004 0.000007 -12.238696 -534.130191 -149.139462 -163.301750 0.000000 -0.000001 -10.253700 825.419291 77.645659 -3.732337 -2.882603 -1.580091 6.695793 17.995703 8.909480 -30.884521 -4.235604 -0.000013 -0.000006 -138.250378 207.540776 -85.086740 0.000002 -0.000008 -10.709908 141.391500 -159.446887 158.606282 -0.000001 0.000001 -11.716797 90.743551 18.903121 58.003175 2.279505 0.210404 -2.475498 410.661135 -35.283856 53.441634 -0.000003 0.000000 -20.742802 198.992343 -18.512958 73.534062 -0.000008 -0.000007 -16.666000 -299.594582 13.478133 36.404529 -1.961899 0.232294 -2.727398 -988.492625 31.240435 -42.469693 -0.000004 -0.000005 -20.526802 896.787555 149.454921 -252.885241 -0.000004 -0.000002 -16.867302 -38.180262 6.613612 -13.283610
44.928116 20.855598 29.423592 1158.075622 -23.935522 -9.668315 -0.637400 0.831594 5.390100 40.791174 9.237705 -5.067032 -0.000001 0.000003 4.429896 -10.052734 -1.190397 0.076847 -0.000005 0.000000 10.301401 333.415493 12.475183 9.888457 -0.000001 0.000005 2.173909 -361.004157 1.011762 -2.780502 2.142396 -0.572698 5.717803 -4.311364 8.841854 2.069841 5.673995 -0.000002 0.000002 164.588899 -213.089089 165.965947 0.000000 -0.000003 -12.238701 -535.182423 -149.025739 -163.790300 -0.000000 0.000001 -10.253702 825.535459 77.634403 -2.849988 -2.882601 -1.580091 6.695798 17.995727 8.953482 -31.177795 -4.235598 -0.000008 -0.000005 -138.093543 207.299520 -84.846201 -0.000003 -0.000004 -10.709895 141.305686 -159.496146 158.705073 0.000000 0.000003 -11.716801 90.877709 18.736252 57.698986 2.279500 0.210406 -2.475494 410.867106 -35.217920 53.459382 -0.000003 0.000003 -20.742802 198.965610 -18.698340 73.564805 -0.000004 0.000002 -16.665993 -299.445547 13.451070 36.590314 -1.961901 0.232299 -2.727400 -988.610323 31.625798 -42.409905 -0.000003 -0.000004 -20.526802 896.944922 148.904763 -252.690006 0.000001 -0.000001 -16.867298 -37.623544 6.759337 -12.891962
44.941505 20.869499 29.415592 1157.850062 -24.027000 -9.799467 -0.637405 0.831600 5.390094 40.881220 9.334241 -5.058019 0.000002 0.000002 4.429895 -10.037803 -1.195210 0.072341 -0.000002 -0.000006 10.301398 333.332301 12.573799 9.923373 0.000004 -0.000001 2.173896 -360.828539 1.002800 -2.899295 2.142395 -0.572708 5.717805 -4.337241 8.870747 2.048113 5.674002 -0.000007 0.000009 164.503617 -213.064090 165.889080 0.000000 0.000003 -12.238693 -536.816423 -148.840381 -164.717498 -0.000001 -0.000001 -10.253706 822.985995 77.352787 1.311235 -2.882599 -1.580102 6.695800 18.061354 8.997384 -31.282058 -4.235611 -0.000008 -0.000013 -138.045773 207.195127 -84.770625 0.000001 -0.000002 -10.709895 141.289006 -159.473716 158.820162 -0.000001 -0.000001 -11.716806 90.904040 18.433154 57.582238 2.279495 0.210406 -2.475506 410.824513 -35.232769 53.331070 -0.000002 -0.000016 -20.742809 199.161486 -18.637419 73.616838 -0.000005 0.000000 -16.665998 -299.461448 13.435441 36.652643 -1.961905 0.232292 -2.727402 -988.560162 31.834935 -42.486840 -0.000003 -0.000003 -20.526798 897.139446 148.718012 -252.608591 -0.000002 -0.000002 -16.867296 -37.370868 6.770680 -12.797658
44.955025 20.883499 29.408590 1157.642970 -24.125273 -9.934792 -0.637398 0.831609 5.390094 41.001465 9.438892 -5.053101 -0.000003 0.000005 4.429898 -10.058065 -1.201436 0.067367 0.000004 0.000000 10.301401 333.244492 12.668044 9.956153 -0.000002 0.000000 2.173903 -360.806191 0.960665 -3.164293 2.142401 -0.572706 5.717804 -4.377569 8.936748 2.044418 5.674003 0.000001 0.000009 164.398897 -213.002864 165.802979 -0.000007 0.000003 -12.238696 -538.292290 -148.755919 -165.570916 0.000006 -0.000001 -10.253704 826.937013 77.778854 -1.368210 -2.882595 -1.580099 6.695800 18.103821 9.020309 -31.462273 -4.235609 -0.000008 -0.000004 -137.941817 207.053018 -84.626433 -0.000004 -0.000008 -10.709902 141.156391 -159.569980 158.891237 -0.000006 0.000006 -11.716801 91.096569 18.200735 57.481301 2.279503 0.210412 -2.475506 410.775937 -35.220270 53.207768 -0.000004 -0.000011 -20.742802 199.356256 -18.525954 73.674204 -0.000008 0.000006 -16.666000 -299.517756 13.419425 36.685779 -1.961893 0.232298 -2.727402 -988.483008 32.020340 -42.588559 0.000002 -0.000002 -20.526796 897.222938 148.388045 -252.514115 -0.000005 0.000003 -16.867300 -37.033084 6.764690 -12.685310
